<svg id="visual" viewBox="0 0 960 540" width="960" height="540" xmlns="http://www.w3.org/2000/svg" xmlns:xlink="http://www.w3.org/1999/xlink" version="1.1"><rect x="0" y="0" width="960" height="540" fill="#FFFFFF"></rect><defs><linearGradient id="grad1_0" x1="43.8%" y1="100%" x2="100%" y2="0%"><stop offset="14.444444444444446%" stop-color="#ffffff" stop-opacity="1"></stop><stop offset="85.55555555555554%" stop-color="#ffffff" stop-opacity="1"></stop></linearGradient></defs><defs><linearGradient id="grad2_0" x1="0%" y1="100%" x2="56.3%" y2="0%"><stop offset="14.444444444444446%" stop-color="#ffffff" stop-opacity="1"></stop><stop offset="85.55555555555554%" stop-color="#ffffff" stop-opacity="1"></stop></linearGradient></defs><g transform="translate(960, 540)"><path d="M-378 0C-370 -31.7 -362 -63.3 -350.6 -94C-339.3 -124.6 -324.5 -154.2 -303.1 -175C-281.7 -195.8 -253.5 -207.8 -236.2 -236.2C-218.8 -264.5 -212.3 -309.2 -189 -327.4C-165.7 -345.5 -125.7 -337 -91.4 -341C-57.1 -345 -28.5 -361.5 0 -378L0 0Z" fill="#4FACF7"></path></g><g transform="translate(0, 0)"><path d="M378 0C366 31.8 353.9 63.5 338.1 90.6C322.2 117.6 302.5 140 291 168C279.5 196 276.1 229.8 261.6 261.6C247.2 293.5 221.7 323.5 189 327.4C156.3 331.2 116.5 308.9 83.9 313C51.2 317 25.6 347.5 0 378L0 0Z" fill="#4FACF7"></path></g></svg>